<svg width="18" height="20" viewBox="0 0 18 20" fill="none" xmlns="http://www.w3.org/2000/svg">
<path d="M3.9375 8.3125H14.0625C14.0625 8.3125 15.1875 8.3125 15.1875 9.4375V17.3125C15.1875 17.3125 15.1875 18.4375 14.0625 18.4375H3.9375C3.9375 18.4375 2.8125 18.4375 2.8125 17.3125V9.4375C2.8125 9.4375 2.8125 8.3125 3.9375 8.3125Z" stroke="white" stroke-width="1.5" stroke-linecap="round" stroke-linejoin="round"/>
<path d="M5.0625 8.3125L5.0625 5.5C5.0625 4.45571 5.47734 3.45419 6.21577 2.71577C6.95419 1.97734 7.95571 1.5625 9 1.5625C10.0443 1.5625 11.0458 1.97734 11.7842 2.71577C12.5227 3.45419 12.9375 4.45571 12.9375 5.5L12.9375 8.3125" stroke="white" stroke-width="1.5" stroke-linecap="round" stroke-linejoin="round"/>
<path d="M9 12.25L9 14.5" stroke="white" stroke-width="1.5" stroke-linecap="round" stroke-linejoin="round"/>
</svg>
